<svg width="294" height="294" viewBox="0 0 294 294" fill="none" xmlns="http://www.w3.org/2000/svg">
<path d="M147 285.839C147 290.346 150.657 294.024 155.157 293.774C181.366 292.317 206.761 283.864 228.669 269.226C252.843 253.073 271.684 230.115 282.81 203.254C293.936 176.394 296.847 146.837 291.175 118.322C285.503 89.8065 271.503 63.6136 250.945 43.0553C230.386 22.497 204.193 8.4966 175.678 2.82457C147.163 -2.84746 117.606 0.0636233 90.7456 11.1897C63.8848 22.3158 40.9265 41.1571 24.774 65.3312C10.1358 87.2387 1.68283 112.634 0.226455 138.843C-0.0236329 143.343 3.65401 147 8.16147 147V147C12.6689 147 16.2964 143.342 16.5777 138.843C18.0145 115.866 25.5018 93.6224 38.346 74.3997C52.705 52.91 73.114 36.1608 96.9921 26.2701C120.87 16.3795 147.145 13.7917 172.494 18.8339C197.843 23.8761 221.127 36.3219 239.403 54.5974C257.678 72.8729 270.124 96.1573 275.166 121.506C280.208 146.855 277.62 173.13 267.73 197.008C257.839 220.886 241.09 241.295 219.6 255.654C200.378 268.498 178.134 275.986 155.157 277.422C150.658 277.704 147 281.331 147 285.839V285.839Z" fill="#303943"/>
<path d="M11.2097 175.933C6.80123 176.873 3.96642 181.216 5.14894 185.565C9.9563 203.248 18.0344 219.9 28.9889 234.649C39.9435 249.398 53.551 261.944 69.0901 271.656C72.9124 274.045 77.8893 272.586 80.0625 268.637V268.637C82.2356 264.688 80.78 259.746 76.9744 257.331C63.4797 248.766 51.6505 237.785 42.0929 224.917C32.5354 212.048 25.441 197.551 21.1409 182.157C19.9283 177.815 15.6182 174.994 11.2097 175.933V175.933Z" fill="#303943"/>
<path d="M146.518 64.1827C146.508 61.4997 144.323 59.3187 141.644 59.4775C126.048 60.4023 110.95 65.4898 97.9421 74.2513C83.5886 83.9193 72.4243 97.6264 65.8609 113.639C59.2976 129.652 57.6301 147.252 61.0692 164.213C64.5083 181.173 72.8997 196.733 85.1821 208.925C97.4645 221.117 113.086 229.392 130.072 232.706C147.058 236.019 164.645 234.221 180.608 227.539C196.572 220.857 210.196 209.591 219.757 195.166C228.422 182.094 233.398 166.959 234.207 151.356C234.346 148.676 232.148 146.508 229.465 146.518V146.518C226.782 146.528 224.631 148.713 224.474 151.391C223.669 165.072 219.262 178.328 211.659 189.798C203.159 202.622 191.048 212.636 176.857 218.576C162.666 224.516 147.032 226.115 131.932 223.169C116.833 220.224 102.945 212.867 92.0268 202.029C81.1083 191.191 73.6487 177.359 70.5915 162.282C67.5342 147.204 69.0166 131.559 74.8511 117.324C80.6856 103.089 90.6103 90.9042 103.37 82.3098C114.784 74.6221 128.007 70.1163 141.681 69.2103C144.358 69.033 146.527 66.8657 146.518 64.1827V64.1827Z" fill="#303943"/>
<path d="M224.404 118.344C226.922 117.419 228.227 114.622 227.164 112.158C222.847 102.152 216.692 93.0276 209.005 85.2632C201.318 77.4988 192.256 71.2531 182.294 66.8357C179.841 65.7481 177.03 67.0248 176.08 69.534V69.534C175.131 72.0433 176.402 74.8334 178.848 75.938C187.51 79.8512 195.394 85.3249 202.101 92.099C208.807 98.8731 214.202 106.812 218.028 115.513C219.108 117.969 221.885 119.269 224.404 118.344V118.344Z" fill="#303943"/>
<path d="M183 146.5C183 166.658 166.658 183 146.5 183C126.342 183 110 166.658 110 146.5C110 126.342 126.342 110 146.5 110C166.658 110 183 126.342 183 146.5ZM117.277 146.5C117.277 162.639 130.361 175.723 146.5 175.723C162.639 175.723 175.723 162.639 175.723 146.5C175.723 130.361 162.639 117.277 146.5 117.277C130.361 117.277 117.277 130.361 117.277 146.5Z" fill="#303943"/>
</svg>
