<svg width="25" height="25" viewBox="0 0 25 25" fill="none" xmlns="http://www.w3.org/2000/svg">
<path d="M12.4774 16.2109C12.4851 16.2109 12.4926 16.211 12.5002 16.211C14.2047 16.211 15.8073 15.5489 17.0151 14.3454C18.2283 13.1363 18.8965 11.5272 18.8965 9.81445V0H10.6148C8.12725 0 6.10352 2.02373 6.10352 4.51128V9.75298C6.10352 13.3017 8.96284 16.1987 12.4774 16.2109ZM7.56836 4.51128C7.56836 2.83149 8.93501 1.46484 10.6148 1.46484H17.4316V9.81445C17.4316 11.135 16.9165 12.3756 15.9811 13.3077C15.0458 14.2398 13.8031 14.7519 12.4825 14.7461C9.77285 14.7367 7.56836 12.4968 7.56836 9.75298V4.51128Z" fill="white"/>
<path d="M23.0109 17.5341C21.729 16.244 20.0216 15.5268 18.2035 15.5144L17.9223 15.5125L17.7121 15.6992C16.277 16.9738 14.426 17.6758 12.5014 17.6758H12.4735C10.5762 17.6692 8.74404 16.9671 7.3145 15.6986L7.10571 15.5134L6.82661 15.5141C3.06235 15.5234 0 18.5934 0 22.3576V25H25V22.3576C25 20.5379 24.2936 18.8248 23.0109 17.5341ZM23.5352 23.5352H1.46484V22.3576C1.46484 19.488 3.72935 17.1317 6.56523 16.986C8.2272 18.3702 10.3119 19.1332 12.4697 19.1406L12.5002 19.1407C14.6858 19.1407 16.7905 18.3783 18.4603 16.9877C21.2821 17.1464 23.5352 19.5015 23.5352 22.3576V23.5352Z" fill="white"/>
</svg>
