<svg width="25" height="25" viewBox="0 0 25 25" fill="none" xmlns="http://www.w3.org/2000/svg">
<path d="M21.0938 1.95312H19.8242V0.976562C19.8242 0.437207 19.387 0 18.8477 0C18.3083 0 17.8711 0.437207 17.8711 0.976562V1.95312H13.4277V0.976562C13.4277 0.437207 12.9905 0 12.4512 0C11.9118 0 11.4746 0.437207 11.4746 0.976562V1.95312H7.08008V0.976562C7.08008 0.437207 6.64287 0 6.10352 0C5.56416 0 5.12695 0.437207 5.12695 0.976562V1.95312H3.90625C1.75234 1.95312 0 3.70547 0 5.85938V21.0938C0 23.2477 1.75234 25 3.90625 25H11.377C11.9163 25 12.3535 24.5628 12.3535 24.0234C12.3535 23.4841 11.9163 23.0469 11.377 23.0469H3.90625C2.8293 23.0469 1.95312 22.1707 1.95312 21.0938V5.85938C1.95312 4.78242 2.8293 3.90625 3.90625 3.90625H5.12695V4.88281C5.12695 5.42217 5.56416 5.85938 6.10352 5.85938C6.64287 5.85938 7.08008 5.42217 7.08008 4.88281V3.90625H11.4746V4.88281C11.4746 5.42217 11.9118 5.85938 12.4512 5.85938C12.9905 5.85938 13.4277 5.42217 13.4277 4.88281V3.90625H17.8711V4.88281C17.8711 5.42217 18.3083 5.85938 18.8477 5.85938C19.387 5.85938 19.8242 5.42217 19.8242 4.88281V3.90625H21.0938C22.1707 3.90625 23.0469 4.78242 23.0469 5.85938V11.4258C23.0469 11.9651 23.4841 12.4023 24.0234 12.4023C24.5628 12.4023 25 11.9651 25 11.4258V5.85938C25 3.70547 23.2477 1.95312 21.0938 1.95312Z" fill="white"/>
<path d="M19.0918 13.1836C15.834 13.1836 13.1836 15.834 13.1836 19.0918C13.1836 22.3496 15.834 25 19.0918 25C22.3496 25 25 22.3496 25 19.0918C25 15.834 22.3496 13.1836 19.0918 13.1836ZM19.0918 23.0469C16.911 23.0469 15.1367 21.2727 15.1367 19.0918C15.1367 16.9109 16.911 15.1367 19.0918 15.1367C21.2726 15.1367 23.0469 16.9109 23.0469 19.0918C23.0469 21.2727 21.2726 23.0469 19.0918 23.0469Z" fill="white"/>
<path d="M20.5078 18.1152H20.0684V17.0898C20.0684 16.5505 19.6312 16.1133 19.0918 16.1133C18.5524 16.1133 18.1152 16.5505 18.1152 17.0898V19.0918C18.1152 19.6312 18.5524 20.0684 19.0918 20.0684H20.5078C21.0472 20.0684 21.4844 19.6312 21.4844 19.0918C21.4844 18.5524 21.0472 18.1152 20.5078 18.1152Z" fill="white"/>
</svg>
