<svg width="24" height="23" viewBox="0 0 24 23" fill="none" xmlns="http://www.w3.org/2000/svg">
<g clip-path="url(#clip0)">
<path d="M23.0769 3.54638V18.8518C23.0769 20.7699 21.5165 22.3303 19.5984 22.3303H10.8587C8.94057 22.3303 7.38017 20.7699 7.38017 18.8518V17.1126C7.38017 16.6322 7.76946 16.2429 8.24979 16.2429C8.73012 16.2429 9.11942 16.6322 9.11942 17.1126V18.8518C9.11942 19.8108 9.8997 20.5911 10.8587 20.5911H19.5984C20.5574 20.5911 21.3377 19.8108 21.3377 18.8518V3.54638C21.3377 2.58741 20.5574 1.80712 19.5984 1.80712H10.8587C9.8997 1.80712 9.11942 2.58741 9.11942 3.54638V5.28563C9.11942 5.76596 8.73012 6.15526 8.24979 6.15526C7.76946 6.15526 7.38017 5.76596 7.38017 5.28563V3.54638C7.38017 1.62827 8.94057 0.0678711 10.8587 0.0678711H19.5984C21.5165 0.0678711 23.0769 1.62827 23.0769 3.54638ZM10.6375 13.4515C10.2966 13.7898 10.2944 14.3404 10.6326 14.6813C10.8026 14.8527 11.0263 14.9385 11.25 14.9385C11.4715 14.9385 11.693 14.8544 11.8625 14.6863L13.8254 12.7388C14.2395 12.3279 14.4676 11.7812 14.4676 11.1991C14.4676 10.617 14.2395 10.0703 13.8254 9.65941L11.8625 7.71192C11.5216 7.37375 10.9709 7.37579 10.6326 7.71685C10.2944 8.05774 10.2966 8.60839 10.6375 8.94656L12.0313 10.3295H1.68411C1.20378 10.3295 0.814484 10.7188 0.814484 11.1991C0.814484 11.6794 1.20378 12.0687 1.68411 12.0687H12.0313L10.6375 13.4515Z" fill="white"/>
</g>
<defs>
<clipPath id="clip0">
<rect width="22.2624" height="22.2624" fill="white" transform="translate(0.814484 0.0678711)"/>
</clipPath>
</defs>
</svg>
