<svg width="25" height="25" viewBox="0 0 25 25" fill="none" xmlns="http://www.w3.org/2000/svg">
<path d="M8.05664 7.37305C5.22964 7.37305 2.92969 9.673 2.92969 12.5C2.92969 15.327 5.22964 17.627 8.05664 17.627C8.64312 17.627 9.2186 17.5286 9.76704 17.3345C10.1484 17.1996 10.3481 16.7811 10.2132 16.3997C10.0783 16.0184 9.65957 15.8186 9.27847 15.9535C8.8873 16.0919 8.47622 16.1621 8.05664 16.1621C6.03735 16.1621 4.39453 14.5193 4.39453 12.5C4.39453 10.4807 6.03735 8.83789 8.05664 8.83789C10.0759 8.83789 11.7188 10.4807 11.7188 12.5C11.7188 12.9039 11.3902 13.2324 10.9863 13.2324C10.5825 13.2324 10.2539 12.9039 10.2539 12.5V11.0352C10.2539 10.6307 9.92598 10.3027 9.52148 10.3027H8.05664C6.84507 10.3027 5.85938 11.2884 5.85938 12.5C5.85938 13.7116 6.84507 14.6973 8.05664 14.6973C8.61899 14.6973 9.13242 14.4847 9.52148 14.136C9.91055 14.4847 10.424 14.6973 10.9863 14.6973C12.1979 14.6973 13.1836 13.7116 13.1836 12.5C13.1836 9.673 10.8836 7.37305 8.05664 7.37305ZM8.78906 12.5C8.78906 12.9039 8.4605 13.2324 8.05664 13.2324C7.65278 13.2324 7.32422 12.9039 7.32422 12.5C7.32422 12.0961 7.65278 11.7676 8.05664 11.7676H8.78906V12.5ZM21.3379 17.6758C20.333 17.6758 19.4216 18.0828 18.7592 18.7404L15.1384 16.3389C15.7599 15.197 16.1133 13.889 16.1133 12.5C16.1133 11.111 15.7599 9.80298 15.1384 8.66104L18.7592 6.25957C19.4216 6.91719 20.333 7.32422 21.3379 7.32422C23.3572 7.32422 25 5.6814 25 3.66211C25 1.64282 23.3572 0 21.3379 0C19.3186 0 17.6758 1.64282 17.6758 3.66211C17.6758 4.1498 17.7724 4.61514 17.9462 5.04106L14.3239 7.44351C12.8457 5.61499 10.5856 4.44336 8.05664 4.44336C3.61421 4.44336 0 8.05757 0 12.5C0 16.9424 3.61421 20.5566 8.05664 20.5566C10.5856 20.5566 12.8457 19.385 14.3239 17.5565L17.9462 19.9589C17.7724 20.3849 17.6758 20.8502 17.6758 21.3379C17.6758 23.3572 19.3186 25 21.3379 25C23.3572 25 25 23.3572 25 21.3379C25 19.3186 23.3572 17.6758 21.3379 17.6758ZM21.3379 1.46484C22.5495 1.46484 23.5352 2.45054 23.5352 3.66211C23.5352 4.87368 22.5495 5.85938 21.3379 5.85938C20.1263 5.85938 19.1406 4.87368 19.1406 3.66211C19.1406 2.45054 20.1263 1.46484 21.3379 1.46484ZM8.05664 19.0918C4.42192 19.0918 1.46484 16.1347 1.46484 12.5C1.46484 8.86528 4.42192 5.9082 8.05664 5.9082C11.6914 5.9082 14.6484 8.86528 14.6484 12.5C14.6484 16.1347 11.6914 19.0918 8.05664 19.0918ZM21.3379 23.5352C20.1263 23.5352 19.1406 22.5495 19.1406 21.3379C19.1406 20.1263 20.1263 19.1406 21.3379 19.1406C22.5495 19.1406 23.5352 20.1263 23.5352 21.3379C23.5352 22.5495 22.5495 23.5352 21.3379 23.5352Z" fill="white"/>
</svg>
