<svg width="25" height="25" viewBox="0 0 25 25" fill="none" xmlns="http://www.w3.org/2000/svg">
<path d="M12.5 3.79114C9.49535 3.79114 7.05081 6.23558 7.05081 9.2402C7.05081 12.2448 9.49535 14.6893 12.5 14.6893C15.5046 14.6893 17.9491 12.2448 17.9491 9.2402C17.9491 6.23558 15.5046 3.79114 12.5 3.79114ZM12.5 13.2235C10.3035 13.2235 8.51648 11.4365 8.51648 9.2401C8.51648 7.04365 10.3035 5.25681 12.5 5.25681C14.6964 5.25681 16.4835 7.04375 16.4835 9.2402C16.4835 11.4366 14.6965 13.2235 12.5 13.2235Z" fill="white"/>
<path d="M12.5 0C7.4049 0 3.2598 4.1451 3.2598 9.24016C3.2598 12.1785 5.72407 16.5563 7.19297 18.9042C8.15943 20.4489 9.198 21.9191 10.1173 23.0437C11.5928 24.8488 12.1209 24.9999 12.5001 24.9999C12.8848 24.9999 13.3835 24.8487 14.8544 23.0426C15.7757 21.9112 16.8148 20.442 17.7803 18.9054C19.2592 16.5517 21.7402 12.1661 21.7402 9.24006C21.7402 4.1451 17.5951 0 12.5 0ZM16.7642 17.7642C14.869 20.8404 13.129 22.9191 12.4913 23.4498C11.8502 22.9355 10.1385 20.9062 8.21678 17.7739C5.99806 14.1571 4.72556 11.0466 4.72556 9.24016C4.72546 4.95327 8.21307 1.46567 12.5 1.46567C16.7868 1.46567 20.2744 4.95327 20.2744 9.24016C20.2745 11.0363 18.995 14.1431 16.7642 17.7642Z" fill="white"/>
</svg>
