<svg width="512" height="496" viewBox="0 0 512 496" fill="none" xmlns="http://www.w3.org/2000/svg">
<path d="M253.739 512C250.944 512 248.213 510.891 246.187 508.885C243.669 506.368 242.56 502.741 243.264 499.264L258.347 423.851C258.773 421.76 259.755 419.861 261.269 418.389L427.2 252.459C439.659 240 459.989 240 472.448 252.459L502.613 282.624C515.093 295.104 515.093 315.392 502.613 327.872L336.683 493.803C335.211 495.296 333.312 496.299 331.221 496.725L255.808 511.808C255.125 511.936 254.421 512 253.739 512V512ZM278.656 431.168L267.349 487.723L323.904 476.416L487.552 312.768C491.712 308.608 491.712 301.845 487.552 297.685L457.387 267.52C453.227 263.36 446.464 263.36 442.304 267.52L278.656 431.168ZM329.152 486.251H329.365H329.152Z" fill="white"/>
<path d="M202.667 448H53.3333C23.9147 448 0 424.085 0 394.667V117.333C0 87.9147 23.9147 64 53.3333 64H96C101.888 64 106.667 68.7787 106.667 74.6667C106.667 80.5547 101.888 85.3333 96 85.3333H53.3333C35.6907 85.3333 21.3333 99.6907 21.3333 117.333V394.667C21.3333 412.309 35.6907 426.667 53.3333 426.667H202.667C208.555 426.667 213.333 431.445 213.333 437.333C213.333 443.221 208.555 448 202.667 448Z" fill="white"/>
<path d="M352 256C346.112 256 341.333 251.221 341.333 245.333V117.333C341.333 99.6907 326.976 85.3333 309.333 85.3333H266.667C260.779 85.3333 256 80.5547 256 74.6667C256 68.7787 260.779 64 266.667 64H309.333C338.752 64 362.667 87.9147 362.667 117.333V245.333C362.667 251.221 357.888 256 352 256Z" fill="white"/>
<path d="M245.333 128H117.333C99.6906 128 85.3333 113.643 85.3333 96V53.3333C85.3333 47.4453 90.112 42.6667 96 42.6667H129.067C134.016 18.3467 155.584 0 181.333 0C207.083 0 228.651 18.3467 233.6 42.6667H266.667C272.555 42.6667 277.333 47.4453 277.333 53.3333V96C277.333 113.643 262.976 128 245.333 128ZM106.667 64V96C106.667 101.867 111.467 106.667 117.333 106.667H245.333C251.2 106.667 256 101.867 256 96V64H224C218.112 64 213.333 59.2213 213.333 53.3333C213.333 35.6907 198.976 21.3333 181.333 21.3333C163.691 21.3333 149.333 35.6907 149.333 53.3333C149.333 59.2213 144.555 64 138.667 64H106.667Z" fill="white"/>
</svg>
