<svg width="182" height="182" viewBox="0 0 182 182" fill="none" xmlns="http://www.w3.org/2000/svg">
<g clip-path="url(#clip0)">
<path d="M90.9179 104.508C90.9456 104.508 90.973 104.508 91.0007 104.508C97.2051 104.508 103.039 102.098 107.435 97.7171C111.851 93.3161 114.283 87.459 114.283 81.2246V45.5H84.1379C75.0832 45.5 67.7168 52.8664 67.7168 61.9211V81.0008C67.7168 93.9182 78.1247 104.463 90.9179 104.508ZM73.0488 61.9211C73.0488 55.8066 78.0234 50.832 84.1379 50.832H108.951V81.2246C108.951 86.0313 107.076 90.5471 103.671 93.9401C100.267 97.333 95.7432 99.1968 90.9364 99.1758C81.0732 99.1415 73.0488 90.9883 73.0488 81.0008V61.9211Z" fill="white"/>
<path d="M129.26 109.324C124.593 104.628 118.379 102.017 111.761 101.973L110.737 101.966L109.972 102.645C104.748 107.285 98.0107 109.84 91.0052 109.84H90.9035C83.9974 109.816 77.3283 107.26 72.1248 102.643L71.3648 101.969L70.3489 101.971C56.647 102.005 45.5 113.18 45.5 126.882V136.5H136.5V126.882C136.5 120.258 133.929 114.022 129.26 109.324ZM131.168 131.168H50.832V126.882C50.832 116.436 59.0748 107.859 69.3975 107.329C75.447 112.367 83.0354 115.145 90.8898 115.172L91.0009 115.172C98.9565 115.172 106.618 112.397 112.696 107.335C122.967 107.913 131.168 116.485 131.168 126.882V131.168Z" fill="white"/>
</g>
<circle cx="91" cy="91" r="89.5" stroke="white" stroke-width="3"/>
<defs>
<clipPath id="clip0">
<rect width="91" height="91" fill="white" transform="translate(45.5 45.5)"/>
</clipPath>
</defs>
</svg>
